<?xml version="1.0" encoding="UTF-8"?>
<svg id="Layer_1" data-name="Layer 1" xmlns="http://www.w3.org/2000/svg" xmlns:xlink="http://www.w3.org/1999/xlink" viewBox="0 0 185.94 404">
  <defs>
    <style>
      .cls-1 {
        fill: url(#radial-gradient);
      }

      .cls-2 {
        fill: url(#radial-gradient-2);
      }

      .cls-3 {
        fill: #41715f;
      }
    </style>
    <radialGradient id="radial-gradient" cx="92.97" cy="93.36" fx="92.97" fy="93.36" r="93.17" gradientUnits="userSpaceOnUse">
      <stop offset="0" stop-color="#92a1cb"/>
      <stop offset=".89" stop-color="#c5e5f1"/>
    </radialGradient>
    <radialGradient id="radial-gradient-2" cx="92.97" cy="93.36" fx="92.97" fy="93.36" r="40.5" xlink:href="#radial-gradient"/>
  </defs>
  <g>
    <path class="cls-3" d="M89.65,272.97h58.76v-37.23s-2.96-1.74-5.75,1.05c-2.79,2.79-7.67,14.82-19.53,16.04-11.86,1.22-32.43,12.56-33.48,20.14Z"/>
    <path class="cls-3" d="M92.97,272.97h-58.76v-37.23s2.96-1.74,5.75,1.05c2.79,2.79,7.67,14.82,19.53,16.04,11.86,1.22,32.43,12.56,33.48,20.14Z"/>
    <path class="cls-3" d="M85.46,222.99h58.76v-37.23s-2.96-1.74-5.75,1.05c-2.79,2.79-7.67,14.82-19.53,16.04-11.86,1.22-32.43,12.56-33.48,20.14Z"/>
    <path class="cls-3" d="M92.97,222.99h-58.76v-37.23s2.96-1.74,5.75,1.05c2.79,2.79,7.67,14.82,19.53,16.04,11.86,1.22,32.43,12.56,33.48,20.14Z"/>
    <path class="cls-3" d="M91.43,370.06h58.76v-37.23s-2.96-1.74-5.75,1.05c-2.79,2.79-7.67,14.82-19.53,16.04-11.86,1.22-32.43,12.56-33.48,20.14Z"/>
    <path class="cls-3" d="M94.75,370.06h-58.76v-37.23s2.96-1.74,5.75,1.05c2.79,2.79,7.67,14.82,19.53,16.04,11.86,1.22,32.43,12.56,33.48,20.14Z"/>
    <path class="cls-3" d="M87.23,320.08h58.76v-37.23s-2.96-1.74-5.75,1.05c-2.79,2.79-7.67,14.82-19.53,16.04-11.86,1.22-32.43,12.56-33.48,20.14Z"/>
    <path class="cls-3" d="M94.75,320.08h-58.76v-37.23s2.96-1.74,5.75,1.05c2.79,2.79,7.67,14.82,19.53,16.04,11.86,1.22,32.43,12.56,33.48,20.14Z"/>
    <rect class="cls-3" x="89.27" y="141.94" width="7.63" height="262.05"/>
  </g>
  <g>
    <path class="cls-1" d="M175.81,87.91l-34.31-12.04,17.93-31.64c7.75-13.68-7.9-28.65-21.22-20.3l-30.81,19.32-13.55-33.75c-5.86-14.59-27.32-11.69-29.1,3.93l-4.11,36.13-34.83-10.44c-15.06-4.52-26.17,14.07-15.07,25.2l25.69,25.74-29.88,20.72c-12.92,8.96-5.32,29.24,10.31,27.49l36.14-4.04-2.43,36.28c-1.05,15.69,19.54,22.38,27.92,9.08l19.38-30.77,26.85,24.52c11.61,10.6,29.69-1.32,24.51-16.17l-11.98-34.34,35.92-5.7c15.53-2.46,17.47-24.03,2.64-29.24Z"/>
    <path class="cls-2" d="M128.98,90.99l-14.92-5.24,7.8-13.75c3.37-5.95-3.43-12.45-9.22-8.82l-13.39,8.4-5.89-14.67c-2.55-6.34-11.88-5.08-12.65,1.71l-1.78,15.71-15.14-4.54c-6.55-1.96-11.38,6.12-6.55,10.95l11.17,11.19-12.99,9.01c-5.62,3.89-2.31,12.71,4.48,11.95l15.71-1.76-1.06,15.77c-.46,6.82,8.5,9.73,12.14,3.95l8.42-13.38,11.67,10.66c5.05,4.61,12.9-.58,10.65-7.03l-5.21-14.93,15.61-2.48c6.75-1.07,7.6-10.45,1.15-12.71Z"/>
  </g>
</svg>