<?xml version="1.0" encoding="UTF-8"?>
<svg id="Layer_1" data-name="Layer 1" xmlns="http://www.w3.org/2000/svg" xmlns:xlink="http://www.w3.org/1999/xlink" viewBox="0 0 392.21 393.85">
  <defs>
    <style>
      .cls-1 {
        fill: url(#radial-gradient);
      }

      .cls-2 {
        fill: url(#radial-gradient-2);
      }
    </style>
    <radialGradient id="radial-gradient" cx="196.11" cy="196.92" fx="196.11" fy="196.92" r="196.52" gradientUnits="userSpaceOnUse">
      <stop offset="0" stop-color="#92a1cb"/>
      <stop offset=".89" stop-color="#c5e5f1"/>
    </radialGradient>
    <radialGradient id="radial-gradient-2" cx="196.11" cy="196.92" fx="196.11" fy="196.92" r="85.43" xlink:href="#radial-gradient"/>
  </defs>
  <path class="cls-1" d="M370.84,185.42l-72.38-25.4,37.83-66.73c16.35-28.85-16.66-60.43-44.75-42.81l-64.99,40.75-28.59-71.18c-12.36-30.77-57.63-24.65-61.37,8.3l-8.66,76.22-73.47-22.03c-31.77-9.53-55.21,29.68-31.78,53.15l54.19,54.29-63.04,43.71c-27.25,18.9-11.21,61.67,21.75,57.99l76.23-8.52-5.13,76.54c-2.22,33.09,41.23,47.22,58.89,19.15l40.87-64.91,56.64,51.73c24.49,22.36,62.61-2.79,51.69-34.1l-25.27-72.43,75.76-12.03c32.75-5.2,36.86-50.7,5.57-61.68Z"/>
  <path class="cls-2" d="M272.07,191.92l-31.46-11.04,16.44-29.01c7.11-12.54-7.24-26.27-19.45-18.61l-28.25,17.71-12.43-30.94c-5.37-13.38-25.05-10.72-26.68,3.61l-3.76,33.13-31.94-9.58c-13.81-4.14-24,12.9-13.82,23.11l23.56,23.6-27.4,19c-11.85,8.21-4.87,26.81,9.45,25.21l33.14-3.7-2.23,33.27c-.96,14.38,17.92,20.53,25.6,8.33l17.77-28.22,24.62,22.49c10.64,9.72,27.22-1.21,22.47-14.83l-10.98-31.48,32.93-5.23c14.24-2.26,16.02-22.04,2.42-26.81Z"/>
</svg>