<?xml version="1.0" encoding="UTF-8"?>
<svg id="Layer_1" data-name="Layer 1" xmlns="http://www.w3.org/2000/svg" xmlns:xlink="http://www.w3.org/1999/xlink" viewBox="0 0 186.46 401.76">
  <defs>
    <style>
      .cls-1 {
        fill: #fdf3f1;
      }

      .cls-2 {
        fill: url(#Degradado_sin_nombre_165-2);
      }

      .cls-3 {
        fill: url(#Degradado_sin_nombre_165);
      }

      .cls-4 {
        fill: #41715f;
      }

      .cls-5 {
        fill: #d2a89b;
      }

      .cls-6 {
        fill: url(#Degradado_sin_nombre_164);
      }
    </style>
    <linearGradient id="Degradado_sin_nombre_165" data-name="Degradado sin nombre 165" x1="-1391.7" y1="1409.06" x2="-1391.7" y2="1344.21" gradientTransform="translate(1259.7795 -1419.8453) rotate(-7.7777)" gradientUnits="userSpaceOnUse">
      <stop offset="0" stop-color="#fdf3f1"/>
      <stop offset=".8" stop-color="#ee7a96"/>
    </linearGradient>
    <linearGradient id="Degradado_sin_nombre_165-2" data-name="Degradado sin nombre 165" x1="-1327.23" y1="1409.06" x2="-1327.23" y2="1344.21" xlink:href="#Degradado_sin_nombre_165"/>
    <linearGradient id="Degradado_sin_nombre_164" data-name="Degradado sin nombre 164" x1="-1356.06" y1="1248.09" x2="-1356.06" y2="1355.91" gradientTransform="translate(1259.7795 -1419.8453) rotate(-7.7777)" gradientUnits="userSpaceOnUse">
      <stop offset="0" stop-color="#fdf3f1"/>
      <stop offset="1" stop-color="#ee7a96"/>
    </linearGradient>
  </defs>
  <path class="cls-4" d="M97.55,270.74h58.76v-37.23s-2.96-1.74-5.75,1.05c-2.79,2.79-7.67,14.82-19.53,16.04-11.86,1.22-32.43,12.56-33.48,20.14Z"/>
  <path class="cls-4" d="M100.88,270.74h-58.76v-37.23s2.96-1.74,5.75,1.05c2.79,2.79,7.67,14.82,19.53,16.04,11.86,1.22,32.43,12.56,33.48,20.14Z"/>
  <path class="cls-4" d="M93.36,220.76h58.76v-37.23s-2.96-1.74-5.75,1.05c-2.79,2.79-7.67,14.82-19.53,16.04-11.86,1.22-32.43,12.56-33.48,20.14Z"/>
  <path class="cls-4" d="M100.88,220.76h-58.76v-37.23s2.96-1.74,5.75,1.05c2.79,2.79,7.67,14.82,19.53,16.04,11.86,1.22,32.43,12.56,33.48,20.14Z"/>
  <path class="cls-4" d="M99.33,367.83h58.76v-37.23s-2.96-1.74-5.75,1.05c-2.79,2.79-7.67,14.82-19.53,16.04-11.86,1.22-32.43,12.56-33.48,20.14Z"/>
  <path class="cls-4" d="M102.66,367.83h-58.76v-37.23s2.96-1.74,5.75,1.05c2.79,2.79,7.67,14.82,19.53,16.04,11.86,1.22,32.43,12.56,33.48,20.14Z"/>
  <path class="cls-4" d="M95.14,317.85h58.76v-37.23s-2.96-1.74-5.75,1.05c-2.79,2.79-7.67,14.82-19.53,16.04-11.86,1.22-32.43,12.56-33.48,20.14Z"/>
  <path class="cls-4" d="M102.66,317.85h-58.76v-37.23s2.96-1.74,5.75,1.05c2.79,2.79,7.67,14.82,19.53,16.04,11.86,1.22,32.43,12.56,33.48,20.14Z"/>
  <rect class="cls-4" x="97.18" y="139.71" width="7.63" height="262.05"/>
  <g>
    <path class="cls-3" d="M98.24,95.49c-14.1,6.99-30.61,10.02-46.28,9.42-3.5-.13-7.08-.98-10.56-.18-4.43,1.01-7.93,4.57-9.99,8.62-2.27,4.47-3.46,9.88-3.72,14.86-.53,9.9,1.94,20.71,8.26,28.52,7.27,8.99,18.48,11.27,29.32,8.46,13.69-3.55,28.77-10.75,35.7-23.87,5.34-10.11,5.1-22.22,2.19-33-1.19-4.4-2.76-8.81-4.93-12.83"/>
    <path class="cls-2" d="M91.23,96.45c15.45,2.95,32.18,1.45,47.11-3.33,3.34-1.07,6.56-2.84,10.13-3.01,4.54-.21,8.87,2.27,11.93,5.62,3.38,3.7,5.98,8.59,7.57,13.32,3.16,9.39,3.69,20.47-.31,29.7-4.6,10.61-14.78,15.81-25.98,16.01-14.14.25-30.6-2.64-40.79-13.42-7.85-8.3-10.87-20.03-10.96-31.21-.04-4.56.3-9.22,1.31-13.68"/>
    <path class="cls-6" d="M126.22,37.94c3.2,23.46-26.52,69.16-26.52,69.16,0,0-40.9-36.05-44.1-59.52C52.39,24.12,65.6,2.94,85.1.28c19.5-2.66,37.91,14.2,41.12,37.66Z"/>
    <path class="cls-1" d="M87.63,59.34c-5.25-6.75-11.69-12.49-18.91-16.54-11.42-6.4-25.65-8.47-38.21-4.41-12.31,3.98-17.64,18.34-30.51,21.42,6.88,12.73,8.69,25.49,9.81,39.72.76,9.65,2.46,19.81,8.72,27.19,9.3,10.97,25.9,12.84,39.13,9.58,7.31-1.8,14.41-5.08,20.27-9.84,6.54-5.3,13.43-15.5,23.07-10.66-.54-.27,1-20.66.79-22.62-1.34-11.98-6.48-23.98-14.15-33.84Z"/>
    <path class="cls-1" d="M99.05,57.78c3.25-7.91,7.91-15.17,13.78-21.01,9.29-9.23,22.44-15.04,35.63-14.5,12.93.53,21.91,12.94,35.14,12.45-3.22,14.11-1.53,26.89,1.2,40.9,1.85,9.5,2.95,19.74-1.11,28.54-6.02,13.06-21.5,19.31-35.13,19.73-7.53.23-15.24-1.03-22.17-4.04-7.72-3.36-17.09-11.33-25.08-4.09.45-.41-6.51-19.63-6.82-21.58-1.92-11.9-.19-24.84,4.56-36.4Z"/>
    <path class="cls-5" d="M99.96,106.2c-11.29,1.97-18.62-4.85-27.56,2.26-2,1.59-3.74,3.63-6.12,4.66-3.04,1.31-6.63.74-9.58-.75-3.26-1.65-6.29-4.31-8.59-7.12-4.58-5.59-11.47-.83-11.13-8.15.39-8.41,5.99-14.59,13.57-17.61,9.57-3.82,21.53-6.09,31.26-1.38,7.49,3.63,12.58,10.85,15.52,18.44,1.2,3.1,2.18,6.36,2.64,9.66"/>
    <path class="cls-5" d="M97.75,106.51c11.41-1.13,16.64-9.66,27.16-5.21,2.35.99,4.57,2.49,7.15,2.85,3.28.45,6.58-1.07,9.03-3.3,2.7-2.46,4.9-5.84,6.37-9.17,2.91-6.61,10.83-3.88,8.53-10.84-2.64-8-9.69-12.45-17.8-13.33-10.25-1.11-22.38-.1-30.48,7.06-6.24,5.51-9.21,13.82-10.01,21.92-.33,3.3-.39,6.71.05,10.01"/>
  </g>
</svg>